<?xml version="1.0" encoding="utf-8"?>
<!-- Generator: Adobe Illustrator 22.1.0, SVG Export Plug-In . SVG Version: 6.00 Build 0)  -->
<svg version="1.1" id="Layer_1" xmlns="http://www.w3.org/2000/svg" xmlns:xlink="http://www.w3.org/1999/xlink" x="0px" y="0px"
	 viewBox="0 0 119.3 45" style="enable-background:new 0 0 119.3 45;" xml:space="preserve">
<style type="text/css">
	.st0{fill:#E6E6E6;}
	.st1{fill:#FFFFFF;}
	.st2{fill:#8BC53F;}
	.st3{fill:url(#SVGID_1_);}
	.st4{fill:url(#SVGID_2_);}
	.st5{fill:url(#SVGID_3_);}
	.st6{fill:url(#SVGID_4_);}
	.st7{fill:url(#SVGID_5_);}
	.st8{fill:url(#SVGID_6_);}
	.st9{fill:url(#SVGID_7_);}
	.st10{fill:#E21F26;}
	.st11{fill:url(#SVGID_8_);}
	.st12{opacity:0.36;fill:url(#SVGID_9_);}
	.st13{fill:#71A133;}
</style>
<g>
	<path class="st0" d="M45.9,44.7c-1.6,0-3.1-0.4-4.4-1.2c-1.4,0.8-2.9,1.2-4.5,1.2c-1.4,0-2.7-0.3-3.9-0.9c-1.1-0.6-2.1-1.4-2.9-2.4
		c-0.6-0.7-1.1-1.6-1.5-2.7c-0.3-0.6-0.5-1.2-0.7-1.7h-3.7c-0.8,2-1.4,3.4-2.2,4.4c-1.6,2.1-4,3.2-6.8,3.2c-2.3,0-4.5-0.9-6.2-2.5
		c-1.8-1.7-2.8-3.9-2.8-6.3c0-1,0.2-2,0.5-3.1c0.2-0.6,0.5-1.3,0.8-2.3l7.6-19.2l0.4-1l0.4-1c0.5-1.2,1-2.2,1.6-3.1
		c0.9-1.3,2-2.4,3.4-3.1c1.5-0.8,3.2-1.3,5.1-1.3c1.9,0,3.6,0.4,5.1,1.3c1.4,0.8,2.5,1.8,3.4,3.1C35.1,7.1,35.6,8,36,8.9
		C36,9,36,9.1,36.1,9.2c0.3-1.5,0.9-2.8,1.7-4c1.6-2,3.8-3.1,6.4-3.3c0.2,0,0.3,0,0.5,0c1.3,0,2.4,0.2,3.5,0.7
		c1.3-1.1,3-1.7,4.9-1.7c1.1,0,2.1,0.2,3.1,0.5c1-0.4,2-0.5,3.1-0.5c5,0,7.8,4,7.8,7.7c0,0.4,0,0.9-0.1,1.3c2.8,0.7,4.3,2.5,4.9,3.6
		c0.2,0.3,0.4,0.7,0.6,1.1c0.4-0.7,0.8-1.2,1.3-1.7c1.5-1.7,3.6-2.5,6-2.5c0.1,0,0.3,0,0.5,0c1.8,0.1,3.5,0.7,4.9,1.8
		c0.7-0.4,1.4-0.7,2.1-1c2.1-0.8,4.3-1.2,6.7-1.2c3.2,0,6.1,0.7,8.6,2.2c0.6,0.3,1.1,0.7,1.6,1.1c0.7-0.4,1.6-0.6,2.4-0.6
		c2.9,0,5.3,2.4,5.3,5.3c0,1.7-0.8,3.2-2.1,4.2c0.2,1.1,0.4,2.1,0.4,3.2c0,1.6-0.3,3.1-0.9,4.4c0.4,0.9,0.6,2,0.6,3
		c0,1.6-0.5,3.2-1.4,4.8c-0.8,1.3-1.9,2.6-3.3,3.6c-1.3,1-2.9,1.9-4.8,2.5c-1.8,0.6-3.8,0.9-6.1,0.9c-5.2,0-9.5-1.6-12.6-4.9
		c-0.5-0.5-0.9-1-1.3-1.6c0,0.1-0.1,0.2-0.1,0.3c-0.5,1-1,1.9-1.6,2.6c-0.9,1.1-2,2-3.3,2.6c-1.2,0.6-2.5,0.9-4,0.9
		c-0.2,0-0.3,0-0.5,0c-2.1-0.1-4-0.8-5.5-2.1c-0.8-0.7-1.4-1.4-1.9-2.1c-0.3,0.5-0.7,1-1.1,1.4c-1.7,1.8-3.9,2.8-6.4,2.8
		c-1.9,0-3.6-0.5-5-1.6c-1.3,1-3,1.5-4.7,1.6C46.2,44.7,46,44.7,45.9,44.7L45.9,44.7z"/>
	<path class="st1" d="M46.9,44c-1.6,0-3.1-0.4-4.4-1.2C41.1,43.6,39.6,44,38,44c-1.4,0-2.7-0.3-3.9-0.9c-1.1-0.6-2.1-1.4-2.9-2.4
		c-0.6-0.7-1.1-1.6-1.5-2.7c-0.3-0.6-0.5-1.2-0.7-1.7h-3.7c-0.8,2-1.4,3.4-2.2,4.4c-1.6,2.1-4,3.2-6.8,3.2c-2.3,0-4.5-0.9-6.2-2.5
		c-1.8-1.7-2.8-3.9-2.8-6.3c0-1,0.2-2,0.5-3.1c0.2-0.6,0.5-1.3,0.8-2.3l7.6-19.2l0.4-1l0.4-1c0.5-1.2,1-2.2,1.6-3.1
		c0.9-1.3,2-2.4,3.4-3.1c1.5-0.8,3.2-1.3,5.1-1.3c1.9,0,3.6,0.4,5.1,1.3c1.4,0.8,2.5,1.8,3.4,3.1c0.6,0.8,1.1,1.8,1.5,2.7
		c0,0.1,0.1,0.1,0.1,0.2c0.3-1.5,0.9-2.8,1.7-4c1.6-2,3.8-3.1,6.4-3.3c0.2,0,0.3,0,0.5,0c1.3,0,2.4,0.2,3.5,0.7
		c1.3-1.1,3-1.7,4.9-1.7c1.1,0,2.1,0.2,3.1,0.5c1-0.4,2-0.5,3.1-0.5c5,0,7.8,4,7.8,7.7c0,0.4,0,0.9-0.1,1.3c2.8,0.7,4.3,2.5,4.9,3.6
		c0.2,0.3,0.4,0.7,0.6,1.1c0.4-0.7,0.8-1.2,1.3-1.7c1.5-1.7,3.6-2.5,6-2.5c0.1,0,0.3,0,0.5,0c1.8,0.1,3.5,0.7,4.9,1.8
		c0.7-0.4,1.4-0.7,2.1-1c2.1-0.8,4.3-1.2,6.7-1.2c3.2,0,6.1,0.7,8.6,2.2c0.6,0.3,1.1,0.7,1.6,1.1c0.7-0.4,1.6-0.6,2.4-0.6
		c2.9,0,5.3,2.4,5.3,5.3c0,1.7-0.8,3.2-2.1,4.2c0.2,1.1,0.4,2.1,0.4,3.2c0,1.6-0.3,3.1-0.9,4.4c0.4,0.9,0.6,2,0.6,3
		c0,1.6-0.5,3.2-1.4,4.8c-0.8,1.3-1.9,2.6-3.3,3.6c-1.3,1-2.9,1.9-4.8,2.5c-1.8,0.6-3.8,0.9-6.1,0.9c-5.2,0-9.5-1.6-12.6-4.9
		c-0.5-0.5-0.9-1-1.3-1.6c0,0.1-0.1,0.2-0.1,0.3c-0.5,1-1,1.9-1.6,2.6c-0.9,1.1-2,2-3.3,2.6c-1.2,0.6-2.5,0.9-4,0.9
		c-0.2,0-0.3,0-0.5,0c-2.1-0.1-4-0.8-5.5-2.1c-0.8-0.7-1.4-1.4-1.9-2.1c-0.3,0.5-0.7,1-1.1,1.4C61.9,43,59.6,44,57.1,44
		c-1.9,0-3.6-0.5-5-1.6c-1.3,1-3,1.5-4.7,1.6C47.2,44,47.1,44,46.9,44L46.9,44z"/>
	<path class="st2" d="M46.9,43c-1.6,0-3.1-0.5-4.4-1.4C41.2,42.5,39.6,43,38,43c-1.3,0-2.4-0.3-3.5-0.8c-1-0.5-1.9-1.2-2.6-2.1
		c-0.5-0.6-1-1.4-1.4-2.4C30.3,37,30,36.5,29.8,36l0,0l0,0l0-0.1l-0.2-0.5h-5l-0.2,0.5c-0.8,2-1.4,3.3-2.1,4.3
		c-1.4,1.8-3.5,2.8-6,2.8c-2.1,0-4-0.8-5.5-2.2c-1.6-1.5-2.4-3.4-2.4-5.5c0-0.9,0.1-1.8,0.4-2.8c0.2-0.6,0.4-1.3,0.8-2.2L17.2,11
		l0.4-1l0.4-1c0.4-1.1,0.9-2.1,1.5-2.9C20.2,5,21.3,4,22.5,3.3c1.3-0.8,2.9-1.1,4.6-1.1c1.7,0,3.3,0.4,4.6,1.1
		c1.2,0.7,2.3,1.6,3,2.8c0.5,0.8,1,1.6,1.4,2.5c0.3,0.6,0.6,1.4,0.9,2.4l1,2.6l-0.1-2.5c-0.1-2.4,0.5-4.3,1.7-5.9
		C41,3.4,43,2.4,45.3,2.3c0.1,0,0.3,0,0.4,0c1.3,0,2.6,0.3,3.7,0.9c1.2-1.2,2.9-1.9,4.7-1.9c1.1,0,2.2,0.2,3.1,0.6
		c1-0.4,2-0.6,3.1-0.6c4.4,0,6.8,3.4,6.8,6.7c0,0.7-0.1,1.4-0.4,2.1c3.2,0.4,4.7,2.2,5.3,3.3c0.5,0.8,0.9,1.8,1.3,3.1
		c0.7-1.6,1.3-2.7,2.1-3.6c1.3-1.5,3.2-2.2,5.3-2.2c0.1,0,0.3,0,0.4,0c1.9,0.1,3.5,0.8,4.8,2c0.8-0.5,1.7-1,2.6-1.3
		c1.9-0.8,4.1-1.1,6.4-1.1c3.1,0,5.8,0.7,8.1,2.1c0.7,0.4,1.4,0.9,2.1,1.5c0.7-0.5,1.6-0.8,2.5-0.8c2.3,0,4.3,1.9,4.3,4.3
		c0,1.6-0.9,3-2.2,3.7c0.3,1.2,0.5,2.4,0.5,3.7c0,1.6-0.3,3.1-1,4.3c0.4,0.9,0.7,2,0.7,3.1c0,1.4-0.4,2.8-1.3,4.3
		c-0.7,1.2-1.7,2.3-3,3.4c-1.2,1-2.7,1.7-4.5,2.3c-1.7,0.6-3.6,0.9-5.7,0.9c-4.9,0-9-1.5-11.9-4.6c-0.9-0.9-1.6-1.9-2.2-2.9L81.1,36
		c-0.2,0.3-0.4,0.8-0.7,1.4c-0.4,0.9-0.9,1.7-1.5,2.4c-0.8,1-1.8,1.8-2.9,2.4C75,42.7,73.8,43,72.5,43c-0.2,0-0.3,0-0.5,0
		c-1.9-0.1-3.5-0.7-4.9-1.8c-1-0.9-1.8-1.9-2.3-3c-0.1-0.2-0.2-0.4-0.3-0.7c-0.4,1.4-1.1,2.4-1.7,3.1c-1.5,1.6-3.5,2.5-5.7,2.5
		c-1.9,0-3.7-0.7-5-1.9c-1.3,1.1-2.9,1.8-4.7,1.9C47.2,43,47.1,43,46.9,43L46.9,43z"/>
	<path class="st2" d="M46.9,43c-1.6,0-3.1-0.5-4.4-1.4C41.2,42.5,39.6,43,38,43c-1.3,0-2.4-0.3-3.5-0.8c-1-0.5-1.9-1.2-2.6-2.1
		c-0.5-0.6-1-1.4-1.4-2.4C30.3,37,30,36.5,29.8,36l0,0l0,0l0-0.1l-0.2-0.5h-5l-0.2,0.5c-0.8,2-1.4,3.3-2.1,4.3
		c-1.4,1.8-3.5,2.8-6,2.8c-2.1,0-4-0.8-5.5-2.2c-1.6-1.5-2.4-3.4-2.4-5.5c0-0.9,0.1-1.8,0.4-2.8c0.2-0.6,0.4-1.3,0.8-2.2L17.2,11
		l0.4-1l0.4-1c0.4-1.1,0.9-2.1,1.5-2.9C20.2,5,21.3,4,22.5,3.3c1.3-0.8,2.9-1.1,4.6-1.1c1.7,0,3.3,0.4,4.6,1.1
		c1.2,0.7,2.3,1.6,3,2.8c0.5,0.8,1,1.6,1.4,2.5c0.3,0.6,0.6,1.4,0.9,2.4l1,2.6l-0.1-2.5c-0.1-2.4,0.5-4.3,1.7-5.9
		C41,3.4,43,2.4,45.3,2.3c0.1,0,0.3,0,0.4,0c1.3,0,2.6,0.3,3.7,0.9c1.2-1.2,2.9-1.9,4.7-1.9c1.1,0,2.2,0.2,3.1,0.6
		c1-0.4,2-0.6,3.1-0.6c4.4,0,6.8,3.4,6.8,6.7c0,0.7-0.1,1.4-0.4,2.1c3.2,0.4,4.7,2.2,5.3,3.3c0.5,0.8,0.9,1.8,1.3,3.1
		c0.7-1.6,1.3-2.7,2.1-3.6c1.3-1.5,3.2-2.2,5.3-2.2c0.1,0,0.3,0,0.4,0c1.9,0.1,3.5,0.8,4.8,2c0.8-0.5,1.7-1,2.6-1.3
		c1.9-0.8,4.1-1.1,6.4-1.1c3.1,0,5.8,0.7,8.1,2.1c0.7,0.4,1.4,0.9,2.1,1.5c0.7-0.5,1.6-0.8,2.5-0.8c2.3,0,4.3,1.9,4.3,4.3
		c0,1.6-0.9,3-2.2,3.7c0.3,1.2,0.5,2.4,0.5,3.7c0,1.6-0.3,3.1-1,4.3c0.4,0.9,0.7,2,0.7,3.1c0,1.4-0.4,2.8-1.3,4.3
		c-0.7,1.2-1.7,2.3-3,3.4c-1.2,1-2.7,1.7-4.5,2.3c-1.7,0.6-3.6,0.9-5.7,0.9c-4.9,0-9-1.5-11.9-4.6c-0.9-0.9-1.6-1.9-2.2-2.9L81.1,36
		c-0.2,0.3-0.4,0.8-0.7,1.4c-0.4,0.9-0.9,1.7-1.5,2.4c-0.8,1-1.8,1.8-2.9,2.4C75,42.7,73.8,43,72.5,43c-0.2,0-0.3,0-0.5,0
		c-1.9-0.1-3.5-0.7-4.9-1.8c-1-0.9-1.8-1.9-2.3-3c-0.1-0.2-0.2-0.4-0.3-0.7c-0.4,1.4-1.1,2.4-1.7,3.1c-1.5,1.6-3.5,2.5-5.7,2.5
		c-1.9,0-3.7-0.7-5-1.9c-1.3,1.1-2.9,1.8-4.7,1.9C47.2,43,47.1,43,46.9,43L46.9,43z"/>
	<linearGradient id="SVGID_1_" gradientUnits="userSpaceOnUse" x1="60.1782" y1="7.2419" x2="60.1782" y2="-2.2049">
		<stop  offset="0" style="stop-color:#8BC53F"/>
		<stop  offset="1" style="stop-color:#FFFFFF"/>
	</linearGradient>
	<path class="st3" d="M46.9,42.3c-1.5,0-2.9-0.4-4-1.3l-0.4-0.3l-0.4,0.3c-1.2,0.8-2.6,1.3-4.1,1.3c-1.2,0-2.2-0.2-3.2-0.7
		c-0.9-0.5-1.7-1.1-2.3-1.9c-0.5-0.6-0.9-1.3-1.3-2.3c-0.3-0.6-0.5-1.2-0.7-1.7l0,0l0,0l0,0l-0.2-0.5l-0.2-0.4h-0.5h-5h-0.5L24,35.2
		l-0.2,0.5c-0.7,1.9-1.3,3.2-2,4.1c-1.2,1.6-3.2,2.5-5.4,2.5c-1.9,0-3.6-0.7-5-2C9.8,38.9,9,37.1,9,35.2c0-0.8,0.1-1.7,0.4-2.6
		c0.2-0.5,0.4-1.2,0.8-2.1l7.6-19.2l0.4-1l0.4-1c0.4-1.1,0.9-2,1.4-2.8c0.7-1.1,1.7-2,2.8-2.6c1.2-0.7,2.7-1,4.2-1
		c1.6,0,3,0.4,4.3,1c1.1,0.7,2.1,1.5,2.8,2.6c0.5,0.7,1,1.6,1.3,2.4c0.3,0.6,0.6,1.4,0.9,2.4l1,2.6l1.3-0.3L38.6,11
		c-0.1-2.2,0.4-4,1.5-5.5c1.3-1.6,3.1-2.5,5.2-2.6c0.1,0,0.3,0,0.4,0c1.2,0,2.4,0.3,3.4,0.8L49.5,4l0.4-0.3C51,2.5,52.5,2,54.2,2
		c1,0,2,0.2,2.9,0.6l0.3,0.1l0.3-0.1C58.5,2.2,59.4,2,60.4,2c4,0,6.1,3.1,6.1,6c0,0.6-0.1,1.2-0.4,1.9l-0.3,0.8l0.9,0.1
		c2.9,0.3,4.3,2,4.8,3c0.4,0.7,0.8,1.7,1.2,3l0.5,1.7l0.7-1.7c0.6-1.5,1.3-2.6,2-3.4c1.2-1.3,2.9-2,4.8-2c0.1,0,0.3,0,0.4,0
		c1.7,0.1,3.2,0.7,4.4,1.8l0.4,0.4l0.4-0.3c0.8-0.5,1.6-0.9,2.5-1.3c1.9-0.7,3.9-1.1,6.1-1.1c2.9,0,5.6,0.7,7.8,2
		c0.7,0.4,1.4,0.9,2,1.4l0.4,0.3l0.4-0.3c0.6-0.4,1.4-0.7,2.1-0.7c2,0,3.6,1.6,3.6,3.6c0,1.3-0.7,2.5-1.9,3.2l-0.5,0.3l0.1,0.5
		c0.3,1.1,0.5,2.3,0.5,3.5c0,1.5-0.3,2.9-0.9,4l-0.2,0.3l0.1,0.3c0.4,0.8,0.6,1.8,0.6,2.8c0,1.3-0.4,2.6-1.2,4
		c-0.7,1.1-1.6,2.2-2.9,3.2c-1.2,0.9-2.6,1.7-4.3,2.2c-1.6,0.6-3.5,0.8-5.5,0.8c-4.8,0-8.6-1.5-11.4-4.4c-0.8-0.8-1.5-1.8-2.1-2.8
		L81.3,34l-0.5,1.2l-0.2,0.5c-0.2,0.3-0.4,0.8-0.7,1.4c-0.4,0.9-0.9,1.6-1.4,2.3c-0.7,0.9-1.6,1.7-2.7,2.2c-1,0.5-2.1,0.7-3.2,0.7
		c-0.1,0-0.3,0-0.4,0c-1.8-0.1-3.3-0.6-4.5-1.7c-0.9-0.8-1.7-1.7-2.1-2.7c-0.1-0.2-0.2-0.4-0.3-0.7l-0.7-1.7l-0.5,1.8
		c-0.3,1.1-0.9,2-1.6,2.8c-1.4,1.5-3.2,2.3-5.2,2.3c-1.7,0-3.3-0.6-4.6-1.7l-0.4-0.4l-0.4,0.4c-1.2,1.1-2.7,1.6-4.3,1.7
		C47.2,42.3,47,42.3,46.9,42.3L46.9,42.3z"/>
	<path class="st0" d="M61.6,20.7c-18.5,0-35.7,1.8-50.1,4.8l-1.9,4.8c-0.4,0.9-0.6,1.6-0.8,2.2c-0.3,0.9-0.4,1.9-0.4,2.8
		c0,2.1,0.8,4,2.4,5.5c1.5,1.5,3.4,2.2,5.5,2.2c2.5,0,4.6-1,6-2.8c0.7-0.9,1.4-2.3,2.1-4.3l0.2-0.5h5l0.2,0.5l0,0.1l0,0l0,0
		c0.2,0.5,0.4,1,0.7,1.7c0.4,1,0.9,1.8,1.4,2.4c0.7,0.9,1.6,1.6,2.6,2.1c1,0.5,2.2,0.8,3.5,0.8c1.6,0,3.2-0.5,4.5-1.4
		c1.3,0.9,2.8,1.4,4.4,1.4c0.1,0,0.3,0,0.4,0c1.8-0.1,3.4-0.7,4.7-1.9c1.4,1.2,3.1,1.9,5,1.9c2.2,0,4.2-0.9,5.7-2.5
		c0.6-0.7,1.3-1.7,1.7-3.1c0.1,0.3,0.2,0.5,0.3,0.7c0.5,1.1,1.3,2.1,2.3,3c1.3,1.1,3,1.7,4.9,1.8c0.2,0,0.3,0,0.5,0
		c1.3,0,2.5-0.3,3.5-0.8c1.1-0.5,2.1-1.3,2.9-2.4c0.5-0.7,1-1.5,1.5-2.4c0.3-0.6,0.5-1.1,0.7-1.4l0.2-0.5c0.6,1.1,1.4,2,2.2,2.9
		c2.9,3,7,4.6,11.9,4.6c2.1,0,4-0.3,5.7-0.9c1.7-0.6,3.2-1.4,4.5-2.3c1.3-1,2.3-2.1,3-3.4c0.9-1.5,1.3-2.9,1.3-4.3
		c0-1.1-0.2-2.1-0.7-3.1c0.6-1.1,0.9-2.4,1-3.9C96.2,22.3,79.5,20.7,61.6,20.7z"/>
	<g>
		<path class="st1" d="M106.7,17.9h-0.5v-1.9h-0.7v-0.4h1.9v0.4h-0.7V17.9z M108.1,17.9h-0.4v-2.3h0.7l0.4,1.6l0.4-1.6h0.7v2.3h-0.4
			V16l-0.5,1.9h-0.4l-0.5-1.9V17.9z"/>
	</g>
	<linearGradient id="SVGID_2_" gradientUnits="userSpaceOnUse" x1="20.1373" y1="39.6951" x2="37.6484" y2="14.6957">
		<stop  offset="1.086960e-02" style="stop-color:#ABD272"/>
		<stop  offset="1" style="stop-color:#6C9C31"/>
	</linearGradient>
	<path class="st4" d="M38,39.4c-0.7,0-1.4-0.1-1.9-0.4c-0.5-0.3-1-0.6-1.4-1.1c-0.3-0.4-0.6-0.9-0.9-1.7c-0.3-0.6-0.5-1.2-0.7-1.6
		l-1-2.8h-9.9l-1,2.8c-0.6,1.6-1.1,2.7-1.6,3.4c-0.7,0.9-1.8,1.4-3.2,1.4c-1.2,0-2.2-0.4-3.1-1.3c-0.9-0.9-1.4-1.9-1.4-3
		c0-0.6,0.1-1.1,0.3-1.7c0.1-0.5,0.4-1.1,0.7-1.9l7.6-19.2l0.4-1l0.4-1c0.3-0.9,0.7-1.6,1.1-2.2c0.5-0.7,1.1-1.3,1.9-1.7
		C25,5.8,26,5.6,27.1,5.6c1.1,0,2.1,0.2,2.9,0.7c0.8,0.4,1.4,1,1.9,1.7c0.4,0.6,0.7,1.2,1,1.9c0.2,0.6,0.6,1.4,0.9,2.3l7.7,19.1
		c0.7,1.7,1,2.9,1,3.8c0,1.1-0.4,2.1-1.3,3C40.3,38.9,39.2,39.4,38,39.4L38,39.4z M24.9,24.2h4.4L27,18.1L24.9,24.2L24.9,24.2z"/>
	<linearGradient id="SVGID_3_" gradientUnits="userSpaceOnUse" x1="44.4346" y1="28.1717" x2="50.0795" y2="11.3521">
		<stop  offset="1.086960e-02" style="stop-color:#ABD272"/>
		<stop  offset="1" style="stop-color:#6C9C31"/>
	</linearGradient>
	<path class="st5" d="M46.9,39.4c-1.2,0-2.2-0.4-3-1.2c-0.8-0.8-1.2-2-1.3-3.5l-1.2-23.9c-0.1-1.5,0.2-2.7,0.9-3.6
		c0.8-1,1.8-1.5,3.1-1.5c0.1,0,0.2,0,0.3,0c1.2,0,2.2,0.4,3,1.2c0.8,0.8,1.3,2,1.4,3.5l1.2,23.9c0.1,1.5-0.3,2.7-1,3.6
		c-0.8,0.9-1.8,1.4-3.1,1.5C47.1,39.4,47,39.4,46.9,39.4L46.9,39.4z"/>
	<linearGradient id="SVGID_4_" gradientUnits="userSpaceOnUse" x1="55.1438" y1="31.9263" x2="61.0192" y2="18.1018">
		<stop  offset="1.086960e-02" style="stop-color:#ABD272"/>
		<stop  offset="1" style="stop-color:#6C9C31"/>
	</linearGradient>
	<path class="st6" d="M57.1,39.4c-1.3,0-2.3-0.5-3.1-1.4c-0.8-0.9-1.1-2-1.1-3.5V20c0-1.5,0.4-2.7,1.2-3.5c0.8-0.9,1.9-1.3,3.1-1.3
		c1.2,0,2.3,0.4,3.1,1.3c0.8,0.9,1.2,2,1.2,3.4v14.7c0,1.5-0.4,2.7-1.2,3.6C59.4,38.9,58.4,39.4,57.1,39.4L57.1,39.4z"/>
	<linearGradient id="SVGID_5_" gradientUnits="userSpaceOnUse" x1="66.4156" y1="31.0695" x2="75.1712" y2="16.8993">
		<stop  offset="1.086960e-02" style="stop-color:#ABD272"/>
		<stop  offset="1" style="stop-color:#6C9C31"/>
	</linearGradient>
	<path class="st7" d="M72.5,39.4c-0.1,0-0.2,0-0.3,0c-1.1-0.1-2.1-0.4-2.8-1c-0.6-0.5-1.1-1.1-1.4-1.8c-0.2-0.5-0.6-1.4-1-2.7
		l-4.6-13.3c-0.1-0.4-0.2-0.7-0.3-1c-0.1-0.4-0.2-0.8-0.3-1.2c-0.1-0.5-0.1-0.9-0.1-1.3c0-0.7,0.3-1.3,0.7-1.9
		c0.4-0.6,0.9-1,1.6-1.4c0.6-0.3,1.2-0.5,1.9-0.5c0.1,0,0.1,0,0.2,0c1.8,0.1,2.7,0.9,3.1,1.6c0.4,0.7,0.8,1.7,1.2,3.1l2.6,8.6
		l3.8-8.9c0.5-1.2,1-2.1,1.5-2.6c0.7-0.7,1.6-1.1,2.7-1.1c0.1,0,0.2,0,0.3,0c1.1,0.1,2.1,0.5,2.8,1.3c0.8,0.8,1.1,1.8,1.1,2.8
		c0,0.4-0.1,0.8-0.2,1.2c-0.1,0.4-0.3,0.7-0.4,1.1l-0.1,0.2l-0.4,0.8l-5.9,12.9c-0.2,0.4-0.4,0.8-0.6,1.4c-0.3,0.7-0.7,1.3-1,1.7
		c-0.5,0.6-1,1-1.7,1.4C73.9,39.2,73.3,39.4,72.5,39.4L72.5,39.4z"/>
	<linearGradient id="SVGID_6_" gradientUnits="userSpaceOnUse" x1="91.858" y1="32.2472" x2="100.3832" y2="18.077">
		<stop  offset="1.086960e-02" style="stop-color:#ABD272"/>
		<stop  offset="1" style="stop-color:#6C9C31"/>
	</linearGradient>
	<path class="st8" d="M95.4,39.4c-4,0-7.1-1.2-9.4-3.5c-2.3-2.3-3.4-5.4-3.4-9.3c0-1.8,0.3-3.5,0.8-5c0.6-1.6,1.4-3,2.5-4.1
		c1.1-1.2,2.4-2.1,4-2.7c1.5-0.6,3.2-0.9,5.1-0.9c2.4,0,4.6,0.5,6.3,1.6c1.8,1.1,3.2,2.4,4.1,4.1c0.9,1.7,1.3,3.4,1.3,5.1
		c0,1.7-1,3.4-2.3,4.1c-0.4,0.2-0.8,0.3-1.2,0.5c1.6,0.4,2.8,1.8,2.8,3.5c0,0.7-0.2,1.4-0.6,1.9l-0.1,0.2c-0.5,0.7-1.1,1.4-2,2.1
		c-0.9,0.7-2.1,1.3-3.4,1.8C98.7,39.1,97.2,39.4,95.4,39.4L95.4,39.4z M91.6,29.5c0.1,0.4,0.2,0.7,0.4,1c0.4,0.7,0.8,1.2,1.4,1.5
		c0.6,0.3,1.2,0.5,1.9,0.5c0.5,0,1-0.1,1.4-0.2c0.4-0.1,0.8-0.3,1.2-0.5c0.4-0.3,0.9-0.6,1.2-0.9c0.2-0.2,0.5-0.5,0.9-0.8l0.1-0.1
		c0.3-0.2,0.5-0.4,0.9-0.6c-0.1,0-0.1,0-0.2,0H91.6L91.6,29.5z M91.7,23.2H98c-0.2-0.7-0.5-1.2-0.8-1.6c-0.6-0.6-1.3-0.9-2.4-0.9
		c-0.9,0-1.7,0.3-2.2,0.9C92.2,22,91.9,22.6,91.7,23.2L91.7,23.2z"/>
	<linearGradient id="SVGID_7_" gradientUnits="userSpaceOnUse" x1="54.5722" y1="12.6908" x2="59.0268" y2="4.7033">
		<stop  offset="1.086960e-02" style="stop-color:#ABD272"/>
		<stop  offset="1" style="stop-color:#6C9C31"/>
	</linearGradient>
	<path class="st9" d="M57.3,14.7L57,14.4c-1-0.7-6-4-6-6.6c0-1.1,0.7-3.2,3.2-3.2c1.4,0,2.5,0.6,3.1,1.2c0.6-0.7,1.7-1.2,3.1-1.2
		c2.6,0,3.2,2.1,3.2,3.2c0,2.5-5,5.9-6,6.6L57.3,14.7L57.3,14.7z"/>
	<path class="st10" d="M57.3,13.9c0,0,5.7-3.7,5.7-6c0-0.8-0.4-2.5-2.6-2.5c-2,0-3.1,1.3-3.1,2c0-0.7-1.1-2-3.1-2
		c-2.2,0-2.6,1.7-2.6,2.5C51.6,10.2,57.3,13.9,57.3,13.9z"/>
	<linearGradient id="SVGID_8_" gradientUnits="userSpaceOnUse" x1="57.3142" y1="9.5459" x2="57.3142" y2="6.0131">
		<stop  offset="0" style="stop-color:#E21936"/>
		<stop  offset="1" style="stop-color:#EE8575"/>
	</linearGradient>
	<path class="st11" d="M57.3,13.5c-1.7-1.1-5.4-3.9-5.4-5.6c0-0.2,0.1-2.2,2.3-2.2c1.8,0,3.2,1.1,3.2,1.9l0,0c0-0.7,1.3-1.9,3.1-1.9
		c2.2,0,2.3,2,2.3,2.2C62.7,9.5,59,12.4,57.3,13.5L57.3,13.5z"/>
	<linearGradient id="SVGID_9_" gradientUnits="userSpaceOnUse" x1="57.3145" y1="10.8131" x2="57.3145" y2="13.9236">
		<stop  offset="0" style="stop-color:#FFFFFF"/>
		<stop  offset="1" style="stop-color:#000000"/>
	</linearGradient>
	<path class="st12" d="M57.3,13.9c0,0,5.7-3.7,5.7-6c0-0.8-0.4-2.5-2.6-2.5c-2,0-3.1,1.3-3.1,2c0-0.7-1.1-2-3.1-2
		c-2.2,0-2.6,1.7-2.6,2.5C51.6,10.2,57.3,13.9,57.3,13.9z"/>
	<path class="st13" d="M61.6,20.7c-18.5,0-35.7,1.8-50.1,4.8l-1.9,4.8c-0.4,0.9-0.6,1.6-0.8,2.2c-0.3,0.9-0.4,1.9-0.4,2.8
		c0,2.1,0.8,4,2.4,5.5c1.5,1.5,3.4,2.2,5.5,2.2c2.5,0,4.6-1,6-2.8c0.7-0.9,1.4-2.3,2.1-4.3l0.2-0.5h5l0.2,0.5l0,0.1l0,0l0,0
		c0.2,0.5,0.4,1,0.7,1.7c0.4,1,0.9,1.8,1.4,2.4c0.7,0.9,1.6,1.6,2.6,2.1c1,0.5,2.2,0.8,3.5,0.8c1.6,0,3.2-0.5,4.5-1.4
		c1.3,0.9,2.8,1.4,4.4,1.4c0.1,0,0.3,0,0.4,0c1.8-0.1,3.4-0.7,4.7-1.9c1.4,1.2,3.1,1.9,5,1.9c2.2,0,4.2-0.9,5.7-2.5
		c0.6-0.7,1.3-1.7,1.7-3.1c0.1,0.3,0.2,0.5,0.3,0.7c0.5,1.1,1.3,2.1,2.3,3c1.3,1.1,3,1.7,4.9,1.8c0.2,0,0.3,0,0.5,0
		c1.3,0,2.5-0.3,3.5-0.8c1.1-0.5,2.1-1.3,2.9-2.4c0.5-0.7,1-1.5,1.5-2.4c0.3-0.6,0.5-1.1,0.7-1.4l0.2-0.5c0.6,1.1,1.4,2,2.2,2.9
		c2.9,3,7,4.6,11.9,4.6c2.1,0,4-0.3,5.7-0.9c1.7-0.6,3.2-1.4,4.5-2.3c1.3-1,2.3-2.1,3-3.4c0.9-1.5,1.3-2.9,1.3-4.3
		c0-1.1-0.2-2.1-0.7-3.1c0.6-1.1,0.9-2.4,1-3.9C96.2,22.3,79.5,20.7,61.6,20.7z"/>
	<path class="st1" d="M77.2,18.2L73,28l0.2,0.6L77.7,18c0.5-1.1,0.9-1.9,1.4-2.4c0.3-0.3,0.7-0.6,1.1-0.7c-0.6,0.1-1.1,0.4-1.5,0.8
		C78.2,16.2,77.7,17,77.2,18.2z M100.4,30.6c-0.3,0.3-0.6,0.6-0.9,0.8c-0.4,0.3-0.8,0.7-1.3,1c-0.4,0.2-0.8,0.4-1.2,0.6
		c0.1,0,0.2,0,0.3-0.1c0.5-0.1,0.9-0.3,1.3-0.6c0.5-0.3,0.9-0.6,1.3-1c0.3-0.2,0.6-0.5,0.9-0.8l0.1-0.1c0.3-0.3,0.7-0.5,1.1-0.6
		C101.4,29.9,100.9,30.2,100.4,30.6L100.4,30.6z M97.7,21.2c0.6,0.6,1,1.5,1.2,2.6h0.5c-0.2-1.2-0.6-2.1-1.2-2.7
		c-0.7-0.8-1.6-1.1-2.8-1.1c-0.4,0-0.9,0.1-1.2,0.2c0.2,0,0.5-0.1,0.8-0.1C96,20.1,97,20.4,97.7,21.2z M91.3,28.8h9.4
		c1.1,0,1.8-0.1,2.5-0.3c-0.6,0.1-1.2,0.2-2.1,0.2h-9.8C91.3,28.8,91.3,28.8,91.3,28.8z M30.7,24.7L27.5,16l-0.2,0.7l2.9,8H30.7z
		 M36.9,38.2c-0.5-0.2-0.8-0.5-1.2-0.9c-0.3-0.4-0.6-0.9-0.9-1.5c-0.3-0.6-0.5-1.1-0.7-1.6L33,31H22.1l0,0.1h10.4l1.2,3.2
		c0.2,0.5,0.4,1,0.7,1.6c0.3,0.7,0.6,1.2,0.9,1.5c0.3,0.4,0.7,0.7,1.2,0.9c0.5,0.2,1,0.3,1.6,0.3c0.4,0,0.8-0.1,1.2-0.2
		c-0.2,0-0.5,0.1-0.7,0.1C37.9,38.6,37.3,38.5,36.9,38.2z M70.3,37.7c-0.5-0.5-1-1-1.2-1.5c-0.2-0.5-0.5-1.3-1-2.6l-4.6-13.3
		c-0.1-0.3-0.2-0.7-0.3-1c-0.1-0.4-0.2-0.7-0.3-1.1c-0.1-0.4-0.1-0.8-0.1-1.1c0-0.5,0.2-1.1,0.6-1.6c0.3-0.5,0.8-0.9,1.3-1.1
		c0.2-0.1,0.4-0.2,0.5-0.2c-0.3,0.1-0.7,0.2-1,0.3c-0.5,0.3-1,0.7-1.3,1.1c-0.3,0.5-0.5,1-0.6,1.6c0,0.3,0,0.7,0.1,1.1
		c0.1,0.4,0.2,0.8,0.3,1.1c0.1,0.3,0.2,0.6,0.3,1l4.6,13.3c0.5,1.3,0.8,2.2,1,2.6c0.3,0.5,0.7,1.1,1.2,1.5c0.6,0.5,1.4,0.8,2.4,0.8
		c0.6,0,1.1,0,1.6-0.2c-0.3,0.1-0.7,0.1-1.1,0.1C71.7,38.5,70.9,38.3,70.3,37.7z M87,35.3c-2.1-2.2-3.2-5.2-3.2-8.9
		c0-1.7,0.3-3.3,0.8-4.8c0.5-1.5,1.3-2.8,2.3-3.9c1-1.1,2.3-1.9,3.8-2.5c0.4-0.2,0.8-0.3,1.3-0.4c-0.6,0.1-1.2,0.3-1.7,0.5
		c-1.5,0.6-2.7,1.4-3.8,2.5c-1,1.1-1.8,2.4-2.3,3.9c-0.5,1.5-0.8,3.1-0.8,4.8c0,3.7,1.1,6.7,3.2,8.9c2.1,2.2,5.1,3.3,8.9,3.3
		c1.3,0,2.6-0.2,3.7-0.5c-1,0.2-2.1,0.3-3.2,0.3C92.1,38.6,89.1,37.5,87,35.3z M54.9,37.4c-0.6-0.7-1-1.8-1-3.1V19.8
		c0-1.3,0.3-2.3,1-3.1c0.4-0.4,0.9-0.8,1.5-0.9c-0.8,0.1-1.4,0.5-1.9,1.1c-0.7,0.7-1,1.8-1,3.1v14.5c0,1.3,0.3,2.3,1,3.1
		c0.7,0.8,1.6,1.2,2.6,1.2c0.4,0,0.8-0.1,1.2-0.2c-0.2,0-0.5,0.1-0.7,0.1C56.5,38.6,55.6,38.2,54.9,37.4z M23.4,8.3
		c0.4-0.6,1-1.1,1.7-1.5c0.3-0.2,0.6-0.3,0.9-0.4c-0.5,0.1-0.9,0.3-1.3,0.5c-0.7,0.4-1.2,0.9-1.7,1.5c-0.4,0.6-0.7,1.3-1.1,2.1
		l-0.4,1l-0.4,1l-7.6,19.2c-0.3,0.8-0.5,1.4-0.7,1.9c-0.2,0.5-0.2,1-0.2,1.5c0,1,0.4,1.8,1.1,2.5c0.7,0.7,1.6,1.1,2.6,1.1
		c0.5,0,0.9-0.1,1.3-0.2c-0.3,0-0.5,0.1-0.8,0.1c-1,0-1.9-0.4-2.6-1.1C13.4,36.8,13,35.9,13,35c0-0.5,0.1-1,0.2-1.5
		c0.1-0.5,0.4-1.1,0.7-1.9l7.6-19.2l0.4-1l0.4-1C22.6,9.5,23,8.8,23.4,8.3z M44.9,37.6c-0.7-0.7-1.1-1.7-1.1-3l-1.2-23.9
		c-0.1-1.3,0.2-2.4,0.8-3.1c0.4-0.5,1-0.9,1.6-1.1c-0.8,0.2-1.5,0.6-2,1.2c-0.6,0.8-0.9,1.8-0.8,3.1l1.2,23.9c0.1,1.3,0.4,2.3,1.1,3
		c0.7,0.7,1.6,1.1,2.7,1c0.4,0,0.7-0.1,1-0.2c-0.2,0-0.4,0.1-0.6,0.1C46.5,38.7,45.6,38.3,44.9,37.6z"/>
	<path class="st1" d="M38,38.7c-0.6,0-1.2-0.1-1.6-0.3c-0.5-0.2-0.8-0.5-1.2-0.9c-0.3-0.4-0.6-0.9-0.9-1.5c-0.3-0.6-0.5-1.1-0.7-1.6
		l-1.2-3.2H21.7l-1.2,3.2c-0.6,1.6-1.1,2.6-1.5,3.2c-0.6,0.8-1.5,1.1-2.6,1.1c-1,0-1.9-0.4-2.6-1.1c-0.8-0.7-1.1-1.6-1.1-2.5
		c0-0.5,0.1-1,0.2-1.5c0.1-0.5,0.4-1.1,0.7-1.9l7.6-19.2l0.4-1l0.4-1c0.3-0.8,0.7-1.5,1.1-2.1c0.4-0.6,1-1.1,1.7-1.5
		c0.7-0.4,1.5-0.6,2.5-0.6c1,0,1.8,0.2,2.5,0.6c0.7,0.4,1.2,0.9,1.7,1.5c0.4,0.5,0.7,1.1,1,1.8c0.2,0.6,0.5,1.4,0.9,2.3l7.7,19.1
		c0.7,1.6,1,2.7,1,3.5c0,0.9-0.4,1.8-1.1,2.5C40,38.3,39.1,38.7,38,38.7L38,38.7z M23.9,24.8h6.3L27,16.1L23.9,24.8L23.9,24.8z"/>
	<path class="st1" d="M47.1,38.7c-1.1,0.1-2-0.3-2.7-1c-0.7-0.7-1.1-1.7-1.1-3l-1.2-23.9c-0.1-1.3,0.2-2.4,0.8-3.1
		c0.6-0.8,1.5-1.2,2.6-1.3c1.1-0.1,2,0.3,2.7,1c0.7,0.7,1.1,1.7,1.2,3.1l1.2,23.9c0.1,1.3-0.2,2.4-0.9,3.2
		C49.1,38.2,48.2,38.7,47.1,38.7L47.1,38.7z"/>
	<path class="st1" d="M57.1,38.7c-1.1,0-2-0.4-2.6-1.2c-0.6-0.7-1-1.8-1-3.1V20c0-1.3,0.3-2.3,1-3.1c0.7-0.7,1.6-1.1,2.6-1.1
		c1.1,0,2,0.4,2.6,1.1c0.7,0.7,1,1.7,1,2.9v14.7c0,1.3-0.3,2.4-1,3.1C59.1,38.3,58.2,38.7,57.1,38.7L57.1,38.7z"/>
	<path class="st1" d="M72.3,38.7c-1,0-1.8-0.3-2.4-0.8c-0.5-0.5-1-1-1.2-1.5c-0.2-0.5-0.5-1.3-1-2.6L63,20.4c-0.1-0.3-0.2-0.7-0.3-1
		c-0.1-0.4-0.2-0.7-0.3-1.1c-0.1-0.4-0.1-0.8-0.1-1.1c0-0.5,0.2-1.1,0.6-1.6c0.3-0.5,0.8-0.9,1.3-1.1c0.6-0.3,1.2-0.4,1.8-0.4
		c1.2,0.1,2.1,0.5,2.6,1.3c0.4,0.6,0.7,1.6,1.1,2.9l3.1,10.4l4.5-10.6c0.5-1.1,0.9-1.9,1.4-2.4c0.6-0.6,1.4-0.9,2.4-0.9
		c0.9,0,1.7,0.4,2.4,1.1c0.6,0.7,0.9,1.5,0.9,2.3c0,0.3-0.1,0.7-0.2,1.1c-0.1,0.4-0.2,0.7-0.4,1l-0.1,0.2l-0.4,0.8l-5.9,12.9
		c-0.2,0.4-0.4,0.8-0.6,1.4c-0.3,0.6-0.6,1.2-1,1.6c-0.4,0.5-0.9,0.9-1.4,1.2C73.7,38.6,73,38.7,72.3,38.7L72.3,38.7z"/>
	<path class="st1" d="M90.9,23.9h8c-0.2-1.2-0.6-2.1-1.2-2.7c-0.7-0.8-1.6-1.1-2.8-1.1c-1.1,0-2,0.4-2.7,1.1
		C91.5,21.8,91.1,22.7,90.9,23.9L90.9,23.9z M104.9,34.5c-0.4,0.7-1.1,1.3-1.8,1.9c-0.9,0.7-2,1.2-3.2,1.7c-1.3,0.4-2.8,0.7-4.4,0.7
		l0,0c-3.8,0-6.8-1.1-8.9-3.3c-2.1-2.2-3.2-5.2-3.2-8.9c0-1.7,0.3-3.3,0.8-4.8c0.5-1.5,1.3-2.8,2.3-3.9c1-1.1,2.3-1.9,3.8-2.5
		c1.5-0.6,3.1-0.9,4.9-0.9c2.3,0,4.3,0.5,6,1.5c1.7,1,3,2.3,3.8,3.9c0.8,1.6,1.3,3.2,1.3,4.8c0,1.5-0.8,3-1.9,3.5
		c-0.9,0.5-1.9,0.7-3.5,0.7h-9.8c0.1,0.7,0.3,1.4,0.6,2c0.4,0.8,0.9,1.4,1.6,1.8c0.7,0.4,1.4,0.6,2.2,0.6c0.6,0,1.1-0.1,1.6-0.2
		c0.5-0.1,0.9-0.3,1.3-0.6c0.5-0.3,0.9-0.6,1.3-1c0.3-0.2,0.6-0.5,0.9-0.8l0.1-0.1c0.5-0.5,1.2-0.8,2-0.8c1.6,0,3,1.3,3,3
		c0,0.6-0.2,1.1-0.5,1.6L104.9,34.5z"/>
	<path class="st0" d="M77.9,18.4l-4.2,9.8l0.5,1.6l0.7-1.7l4.5-10.6c0.4-0.9,0.8-1.6,1.1-2.1c-0.6,0.1-1,0.3-1.3,0.6
		C78.7,16.6,78.3,17.4,77.9,18.4z M73.8,37.2c-0.8,0-1.5-0.3-2-0.7c-0.5-0.4-0.8-0.8-1-1.3c-0.2-0.4-0.5-1.3-1-2.6l-4.6-13.2
		c-0.1-0.3-0.2-0.7-0.3-1c-0.1-0.3-0.2-0.7-0.3-1c-0.1-0.4-0.1-0.7-0.1-0.9c0-0.4,0.2-0.8,0.4-1.2c0.1-0.1,0.2-0.3,0.3-0.4
		c-0.3,0.1-0.5,0.1-0.8,0.3c-0.4,0.2-0.8,0.5-1.1,0.9c-0.3,0.4-0.4,0.8-0.4,1.2c0,0.3,0,0.6,0.1,0.9c0.1,0.3,0.2,0.7,0.3,1
		c0.1,0.3,0.2,0.7,0.3,1l4.6,13.2c0.5,1.3,0.8,2.1,1,2.6c0.2,0.5,0.6,0.9,1,1.3c0.5,0.4,1.2,0.6,2,0.7c0.1,0,0.2,0,0.2,0
		c0.5,0,1-0.1,1.4-0.3c0.3-0.2,0.6-0.4,0.8-0.6c-0.2,0.1-0.5,0.1-0.8,0.1C73.9,37.2,73.9,37.2,73.8,37.2z M100.9,31.1L100.9,31.1
		L100.9,31.1c-0.4,0.4-0.7,0.6-1,0.9c-0.3,0.3-0.7,0.6-1.1,0.8c0.4-0.1,0.8-0.3,1.2-0.6c0.5-0.3,1-0.7,1.4-1
		c0.2-0.2,0.5-0.4,0.7-0.7C101.7,30.5,101.3,30.7,100.9,31.1L100.9,31.1z M102.1,27.4H91.6l0.1,0.7c0,0,0,0,0,0.1h9
		c1.5,0,2.4-0.2,3.2-0.6c0.2-0.1,0.4-0.3,0.6-0.4C103.8,27.3,103.1,27.4,102.1,27.4z M98.2,20.7c0.7,0.7,1.1,1.7,1.3,3h1.6L101,23
		c-0.2-1.3-0.7-2.4-1.3-3.1c-0.8-0.9-1.9-1.3-3.3-1.3c-1.1,0-2.1,0.3-2.8,1c0.4-0.1,0.9-0.2,1.3-0.2C96.2,19.4,97.3,19.8,98.2,20.7z
		 M96.9,37.2c-3.6,0-6.4-1-8.4-3.1c-2-2.1-3-4.9-3-8.4c0-1.7,0.2-3.2,0.7-4.6c0.5-1.4,1.2-2.7,2.2-3.7c0.5-0.5,1-1,1.6-1.4
		c-1.2,0.5-2.2,1.2-3.1,2.2c-1,1-1.7,2.3-2.2,3.7c-0.5,1.4-0.7,3-0.7,4.6c0,3.5,1,6.3,3,8.4c2,2.1,4.8,3.1,8.4,3.1
		c1.6,0,3-0.2,4.2-0.6c1-0.3,1.8-0.7,2.5-1.2c-0.3,0.1-0.7,0.3-1,0.4C99.9,37,98.5,37.2,96.9,37.2z M48.4,37.3c-0.8,0-1.5-0.3-2-0.8
		c-0.6-0.6-0.9-1.5-0.9-2.6L44.3,9.9c-0.1-1.2,0.2-2.1,0.7-2.7C45,7.2,45,7.1,45.1,7c-0.7,0.1-1.2,0.4-1.6,1
		c-0.5,0.6-0.7,1.5-0.7,2.7l1.2,23.9c0.1,1.1,0.4,2,0.9,2.6c0.5,0.6,1.2,0.8,2,0.8c0.1,0,0.1,0,0.2,0c0.8,0,1.5-0.3,2-0.9
		c-0.2,0-0.3,0.1-0.5,0.1C48.5,37.3,48.5,37.3,48.4,37.3z M56.5,36.3c-0.5-0.6-0.8-1.5-0.8-2.6V19.2c0-1.1,0.3-2,0.8-2.6
		c0,0,0,0,0,0c-0.6,0.1-1.1,0.4-1.5,0.9c-0.5,0.6-0.8,1.5-0.8,2.6v14.5c0,1.1,0.3,2,0.8,2.6c0.5,0.6,1.3,0.9,2.1,0.9
		c0.9,0,1.5-0.3,2.1-0.9c-0.2,0-0.4,0.1-0.6,0.1C57.8,37.2,57,36.9,56.5,36.3z M30.8,24.6L30.8,24.6l1.8,0.1l-0.3-0.9l-3.2-8.7
		l-0.6-1.7l-0.6,1.7l-0.3,0.8l0,0.1L30.8,24.6z M15.6,36.3c-0.6-0.6-0.9-1.3-0.9-2c0-0.4,0.1-0.9,0.2-1.3c0.1-0.4,0.4-1,0.7-1.8
		l7.6-19.2l0.4-1l0.4-1c0.3-0.8,0.6-1.5,1-2c0.2-0.3,0.5-0.6,0.8-0.8c-0.3,0.1-0.6,0.2-0.8,0.3c-0.6,0.3-1.1,0.8-1.4,1.3
		c-0.4,0.5-0.7,1.2-1,2l-0.4,1l-0.4,1L14.1,32c-0.3,0.8-0.5,1.4-0.7,1.8c-0.1,0.5-0.2,0.9-0.2,1.3c0,0.8,0.3,1.4,0.9,2
		c0.6,0.6,1.3,0.9,2.2,0.9c1,0,1.6-0.3,2.1-0.8c-0.2,0-0.4,0-0.6,0C17,37.2,16.3,36.9,15.6,36.3z M38.2,37c-0.4-0.2-0.7-0.4-0.9-0.8
		c-0.2-0.3-0.5-0.8-0.8-1.4c-0.3-0.6-0.5-1.1-0.7-1.6l-1.2-3.1l-0.2-0.4H22.7l-0.2,0.4l-0.1,0.4H33l0.2,0.4l1.2,3.1
		c0.2,0.5,0.4,1,0.7,1.6c0.3,0.6,0.5,1.1,0.8,1.4c0.3,0.3,0.6,0.6,0.9,0.8c0.4,0.2,0.8,0.3,1.3,0.3c0.9,0,1.6-0.3,2.2-0.9
		c-0.2,0-0.4,0.1-0.7,0.1C39,37.2,38.6,37.1,38.2,37z"/>
</g>
</svg>
