<?xml version="1.0" encoding="utf-8"?>
<!-- Generator: Adobe Illustrator 22.1.0, SVG Export Plug-In . SVG Version: 6.00 Build 0)  -->
<svg version="1.1" id="Layer_1" xmlns="http://www.w3.org/2000/svg" xmlns:xlink="http://www.w3.org/1999/xlink" x="0px" y="0px"
	 viewBox="0 0 150 45" style="enable-background:new 0 0 150 45;" xml:space="preserve">
<style type="text/css">
	.st0{fill:#FFFFFF;}
	.st1{fill:#54CAF5;}
</style>
<g>
	<path class="st0" d="M147.3,38l-5.8-4.9l5.8-5.4c0.4-0.4,0.7-0.9,0.7-1.5c0-0.6-0.2-1.1-0.6-1.5l-2.9-2.9c-0.4-0.4-1-0.6-1.5-0.6
		c-0.5,0-1.1,0.2-1.5,0.6l-2.5,2.4l0-0.7c0-0.6-0.2-1.1-0.6-1.5c-0.4-0.4-0.9-0.7-1.5-0.7c0,0-4.6-0.1-4.6-0.1
		c-0.6,0-1.1,0.2-1.5,0.6c-0.4,0.4-0.6,0.9-0.6,1.5l0,1.8c-0.8-0.8-1.8-1.5-3-2c-1.3-0.5-2.9-0.9-4.6-1c-1.5-0.1-3-0.2-4.7-0.2
		c0,0,0,0,0,0c-0.6,0-1.1,0.2-1.5,0.6c-0.4,0.4-0.6,0.9-0.6,1.5l0.1,12.7c-0.1-0.2-0.2-0.4-0.3-0.6c0,0,0,0,0,0
		c-3.6-8.1-3.6-15.2-3.5-17.9c0-0.8-0.3-1.5-0.9-1.9c-0.4-0.2-0.8-0.4-1.2-0.4c-0.3,0-0.7,0.1-1,0.2c-1.8,0.9-3.5,2.1-4.9,3.5
		c0.5-1.3,0.8-2.7,0.9-4.2c0-0.3,0.1-0.6,0.1-1v-1.2V5.7c0-1-0.8-1.9-1.9-1.9h-1.4c-0.3,0-0.5,0-0.8,0.1c-0.6-0.3-1.3-0.4-2-0.4
		c-1.9,0-3.6,0.9-4.7,2.3c-1.1-1.4-2.8-2.3-4.7-2.3c-0.7,0-1.3,0.1-2,0.4c-0.2-0.1-0.5-0.1-0.7-0.1c0,0,0,0,0,0h-1.4
		c-0.7,0-1.3,0.4-1.6,0.9c-1-0.8-2.3-1.2-3.6-1.2c-1.1,0-2.1,0.3-2.9,0.8V2.9c0-1-0.8-1.9-1.9-1.9h-1.8c-2.3,0-4.2,1.7-4.6,3.9
		c0,0-0.1-0.1-0.1-0.1l-1-1c-0.3-0.3-0.8-0.5-1.3-0.5c0,0,0,0,0,0c-0.4,0-0.8,0.1-1.1,0.4c-0.1-1.5-1.3-2.6-2.8-2.6h-1.4
		c-1,0-1.9,0.8-1.9,1.9v1.8c-1-0.8-2.3-1.2-3.6-1.2c-0.7,0-1.3,0.1-2,0.4c-0.2-0.1-0.5-0.1-0.7-0.1c0,0,0,0,0,0h-0.7
		c0-0.1,0-0.3,0-0.4c0-1.8-1.5-3.3-3.3-3.3c-1.8,0-3.3,1.5-3.3,3.3c0,0.4,0.1,0.8,0.2,1.1c-0.9-0.6-2-0.9-3.2-0.9
		c-0.7,0-1.3,0.1-2,0.4c-0.2-0.1-0.5-0.1-0.8-0.1h-1.4c-0.5,0-1,0.2-1.3,0.5c-0.4,0.4-0.5,0.8-0.5,1.3l0,11.7c0,0,0,0,0,0
		c0,2.7,0.1,3.9,1.2,4.5c-0.2,0-0.5,0-0.7,0c-1,0-1.9,0-2.7,0h-1.3c-1.2,0-2.1,0.9-2.1,2.1v7.3l-1.8-7.9c-0.2-0.9-1-1.6-2-1.6
		l-6.1-0.2c0,0-0.1,0-0.1,0c-1,0-1.8,0.7-2.1,1.6l-0.6,2.7c-0.5-0.8-1.1-1.5-1.9-2c-0.8-0.5-1.7-0.9-2.7-1.2
		C12.9,22.3,12,22.1,11,22c-1-0.1-1.9-0.2-2.9-0.2c-1,0-1.9,0-2.7,0H4.1c-1.2,0-2.1,0.9-2.1,2.1v18.5c0,1,0.7,1.9,1.7,2.1
		c1.7,0.3,3.3,0.5,4.9,0.5h0c1.1,0,2.2-0.1,3.3-0.3c1.1-0.2,2.1-0.5,3-1c0.1,0.1,0.1,0.2,0.2,0.3c0.4,0.5,1,0.8,1.6,0.8
		c0,0,4.4,0.1,4.5,0.1c1,0,1.9-0.7,2.1-1.7l0.5-2.6h1l0.4,2.3c0.2,1,1.1,1.7,2.1,1.7c0,0,4.3,0,4.3,0c0.4,0,0.7-0.1,1-0.3
		c0.1,0,0.2,0.1,0.3,0.1c1.7,0.3,3.3,0.5,4.9,0.5h0c1.1,0,2.2-0.1,3.3-0.3c1.1-0.2,2.1-0.5,3-1c1-0.5,1.8-1.2,2.4-2.1
		c0.6-0.9,1-2.1,1-3.4c0-1-0.2-1.9-0.6-2.8c-0.1-0.3-0.3-0.6-0.5-0.8c0.4-0.4,0.8-0.9,1.1-1.5c0.1-0.3,0.3-0.5,0.4-0.8l1.8,2.9
		l0.2,7.8c0,1.1,1,2.1,2.1,2.1c0,0,3.8,0,3.8,0c1.1,0,2.1-0.9,2.1-2l0.3-8.5l4.7-7.6l0.7,0c-0.1,0.4-0.1,0.8-0.1,1.3
		c0,1.6,0.5,3,1.4,4.3c0.6,0.8,1.5,1.6,2.6,2.4L65,35c-0.6,0-1.2,0.4-1.5,0.8c-0.4,0.5-0.5,1.1-0.4,1.7c0.2,1.2,0.6,2.2,1,3.1
		c0.6,1.1,1.3,2,2.2,2.6c0.9,0.7,1.8,1.1,2.9,1.4c0.8,0.2,1.6,0.3,2.4,0.3c0.2,0,0.5,0,0.8,0c2.4-0.2,4.3-0.9,5.7-2.2c0,0,0,0,0,0
		l0,0.1c0,1.1,1,2.1,2.1,2.1h4.3c1.2,0,2.3-0.5,2.3-1.6h0c0,0.6,0.2,0.9,0.5,1.2c0.4,0.3,0.8,0.5,1.7,0.5h4.3c0.2,0,0.5,0,0.7-0.1
		c0.2,0.1,0.5,0.1,0.7,0.1h6c1.1,0,2-0.8,2.1-1.9c0.1-0.5,0.2-1.5,0.5-2.7h3.4c0.9,1.6,1.8,2.9,2.8,3.9c0.4,0.4,1,0.7,1.5,0.7h5.9
		c0.3,0,0.6-0.1,0.9-0.2c0,0,0.1,0,0.1,0c0,0,4,0,4,0c1.2,0,2.1-0.9,2.1-2.1l0-1.6l1.6,2.7c0.3,0.5,0.8,0.9,1.3,1
		c0.2,0,0.3,0.1,0.5,0.1c0.4,0,0.8-0.1,1.1-0.3l1.6-1c0.1,0.2,0.2,0.4,0.4,0.6c0.4,0.4,0.9,0.6,1.5,0.6c0,0,3.8,0,3.9,0
		c1.1,0,2.1-0.9,2.1-2.1l0-1.4l3.5,3c0.4,0.4,0.9,0.5,1.4,0.5c0.6,0,1.1-0.2,1.5-0.7l3-3.2c0.4-0.4,0.6-1,0.6-1.6
		C148,38.9,147.8,38.4,147.3,38z"/>
	<g>
		<path class="st1" d="M16.4,31.9c0.5-0.8,0.7-1.8,0.7-2.9c0-0.8-0.2-1.5-0.5-2.1c-0.3-0.6-0.8-1-1.3-1.4c-0.6-0.4-1.3-0.7-2-0.9
			c-0.8-0.2-1.7-0.4-2.5-0.5C9.8,24,8.9,23.9,8,23.9c-0.9,0-1.8,0-2.6,0H4.1v18.5c2.5,0.5,5,0.6,7.4,0.2c0.9-0.1,1.7-0.4,2.4-0.8
			c0.7-0.3,1.2-0.8,1.6-1.4c0.4-0.6,0.6-1.4,0.6-2.3c0-0.6-0.1-1.3-0.4-1.9c-0.3-0.6-0.7-1.1-1.2-1.4l-1-0.6l1.1-0.5
			C15.4,33.3,16,32.7,16.4,31.9z M10.7,39c-0.5,0.2-1.2,0.2-2,0.2H8.1v-3.5l0.7,0c0.4,0,0.7,0.1,1,0.1c0.4,0,0.7,0.1,1,0.2
			c0.3,0.1,0.6,0.3,0.8,0.5c0.2,0.3,0.4,0.6,0.4,1C11.9,37.9,11.8,38.7,10.7,39z M11.3,31.5C10.6,31.8,9.8,32,8.9,32l-0.7,0l0-4.4
			h0.6c0.4,0,0.9,0,1.3,0.1c0.4,0.1,0.8,0.1,1.1,0.2c0.4,0.1,0.7,0.3,0.9,0.5c0.3,0.3,0.4,0.6,0.4,1C12.5,30.5,12,31.1,11.3,31.5z"
			/>
		<path class="st1" d="M21.1,23.5l-4.4,19.2l4.4,0.1l0.8-4.3h4.5l0.8,4l4.3,0l-4.3-18.8L21.1,23.5z M22.7,34.9l1.4-7.5l1.5,7.5H22.7
			z"/>
		<path class="st1" d="M44.4,25.5c-0.6-0.4-1.3-0.7-2-0.9c-0.8-0.2-1.7-0.4-2.5-0.5c-0.9-0.1-1.8-0.2-2.7-0.2c-0.9,0-1.8,0-2.6,0
			h-1.3v18.5c2.5,0.5,5,0.6,7.4,0.2c0.9-0.1,1.7-0.4,2.4-0.8c0.7-0.3,1.2-0.8,1.6-1.4c0.4-0.6,0.6-1.4,0.6-2.3
			c0-0.6-0.1-1.3-0.4-1.9c-0.3-0.6-0.7-1.1-1.2-1.4l-1-0.6l1.1-0.5c0.8-0.3,1.4-0.9,1.8-1.7c0.5-0.8,0.7-1.8,0.7-2.9
			c0-0.8-0.2-1.5-0.5-2.1C45.4,26.4,45,25.9,44.4,25.5z M39.9,39c-0.5,0.2-1.2,0.2-2,0.2h-0.6v-3.5l0.7,0c0.4,0,0.7,0.1,1,0.1
			c0.4,0,0.7,0.1,1,0.2c0.3,0.1,0.6,0.3,0.8,0.5c0.2,0.3,0.4,0.6,0.4,1C41,37.9,40.9,38.7,39.9,39z M40.4,31.5
			C39.7,31.8,39,32,38,32l-0.7,0l0-4.4H38c0.4,0,0.9,0,1.3,0.1c0.4,0.1,0.8,0.1,1.1,0.2c0.4,0.1,0.7,0.3,0.9,0.5
			c0.3,0.3,0.4,0.6,0.4,1C41.6,30.5,41.2,31.1,40.4,31.5z"/>
		<polygon class="st1" points="53.8,30 49.7,23.2 46,25.2 51.7,34.4 51.8,42.8 55.7,42.8 56,33.8 61.3,25.3 57.6,23.3 		"/>
		<path class="st1" d="M72.3,27c0.9,0,1.4,0.5,1.6,0.9c0.2,0.3,0.3,0.7,0.4,1.1h4.2c0-0.7-0.2-1.4-0.4-1.9c-0.3-0.7-0.6-1.3-1-1.7
			c-0.4-0.4-0.9-0.8-1.4-1.1c-0.5-0.3-1.1-0.5-1.6-0.6c-0.5-0.1-1-0.2-1.4-0.3c-0.5,0-0.8-0.1-1-0.1c-1,0-1.9,0.1-2.7,0.4
			c-0.8,0.2-1.4,0.6-1.9,1c-0.5,0.4-0.9,0.9-1.2,1.5c-0.3,0.6-0.4,1.2-0.4,1.9c0,1.2,0.3,2.2,1,3.1c0.7,0.9,1.9,1.9,3.6,2.8
			c1.1,0.6,1.9,1.1,2.3,1.7c0.4,0.6,0.7,1.1,0.7,1.6c0,0.6-0.3,1-0.6,1.2c-0.3,0.2-0.7,0.4-1.1,0.3c-0.2,0-0.3,0-0.5,0
			c-0.2,0-0.5-0.1-0.7-0.3c-0.2-0.2-0.4-0.4-0.6-0.7c-0.1-0.2-0.3-0.5-0.4-0.8l-4,0.3c0.2,1,0.5,1.8,0.8,2.5c0.4,0.8,1,1.5,1.6,1.9
			c0.6,0.5,1.3,0.8,2.1,1c0.8,0.2,1.7,0.2,2.6,0.2c1.9-0.1,3.4-0.7,4.3-1.6c1-0.9,1.5-2.1,1.5-3.6c0-0.4-0.1-0.9-0.2-1.4
			c-0.1-0.5-0.3-0.9-0.6-1.4c-0.3-0.5-0.8-1-1.3-1.5c-0.6-0.5-1.4-1.1-2.4-1.6c-0.6-0.3-1.1-0.6-1.4-0.8c-0.4-0.2-0.7-0.5-1-0.7
			c-0.3-0.3-0.5-0.5-0.6-0.7c-0.1-0.3-0.2-0.6-0.2-0.9c0-0.4,0.1-0.7,0.4-1C71.1,27.1,71.6,27,72.3,27z"/>
		<polygon class="st1" points="89.4,31.8 84.5,31.7 84.5,24.1 79.6,24.1 80.2,42.8 84.5,42.8 84.5,35.9 89.2,35.9 89,42.8 
			93.3,42.8 94.2,23.9 89.4,23.9 		"/>
		<path class="st1" d="M127.8,34c0.7-0.7,1.3-1.4,1.5-2.2c0.3-0.8,0.4-1.6,0.4-2.2c0-1.2-0.3-2.2-0.9-2.9c-0.6-0.8-1.5-1.4-2.5-1.8
			c-1.1-0.4-2.5-0.8-4-0.9c-1.4-0.1-2.9-0.2-4.5-0.2l0.1,18.9l4,0l0.1-6.7h0.6c0.1,0,0.1,0,0.2,0c0.1,0,0.1,0,0.2,0l0.4-0.1l4,7
			l3.7-2.4l-3.8-6L127.8,34z M124.7,31.3c-0.4,0.5-1,0.9-1.9,1l-0.7,0.1l0-5l0.7,0.1c0.9,0.1,1.5,0.4,1.8,0.8
			c0.4,0.4,0.6,0.9,0.6,1.5C125.2,30.3,125.1,30.8,124.7,31.3z"/>
		<polygon class="st1" points="138.3,33.1 145.8,26.1 142.9,23.2 136.6,29.3 136.9,23.3 132.3,23.2 132.1,42.7 135.9,42.7 
			136.1,36.8 143,42.8 145.9,39.6 		"/>
		<path class="st1" d="M109.9,17.8c-7.2,3.6-11.4,12.6-13.5,18.9c-0.9,2.8-1.5,5-1.7,6.1h6c0.1-0.8,0.3-2.3,0.9-4.2l0.1-0.4h6.2
			l0.2,0.3c0.9,1.7,1.9,3.2,2.9,4.3h5.9c-1.4-2-2.5-4.1-3.4-6.1C109.7,28.2,109.7,20.6,109.9,17.8z M106.2,26.8c0,0,0,3.2,1.2,7.4
			l-4.8-0.1C102.7,34.1,104.1,29.5,106.2,26.8z"/>
	</g>
	<g>
		<path class="st1" d="M80.2,5.4c-2.3,0-4.1,1.8-4.1,4.1c0,2.3,1.8,4.1,4.1,4.1c2.3,0,4.1-1.8,4.1-4.1C84.3,7.2,82.5,5.4,80.2,5.4z
			 M80.2,11.3c-1,0-1.8-0.8-1.8-1.8c0-1,0.8-1.8,1.8-1.8c1,0,1.8,0.8,1.8,1.8C82,10.5,81.2,11.3,80.2,11.3z"/>
		<path class="st1" d="M73.6,5.3h1.8V2.9h-1.8c-1.6,0-2.8,1.3-2.8,2.8h0v1.4h-1.4v2.3h1.4v4.2h1.4c0.5,0,0.9-0.4,0.9-0.9V9.4h1.4
			c0.5,0,0.9-0.4,0.9-0.9V7.1h-2.3V5.8C73.1,5.5,73.3,5.3,73.6,5.3z"/>
		<path class="st1" d="M42.8,5.4c-0.7,0-1.4,0.3-2,0.7c-0.2-0.2-0.5-0.4-0.8-0.4h-1.4l0,11.7h1.5c0.4-0.1,0.8-0.4,0.8-0.9V13
			c0.5,0.4,1.1,0.6,1.8,0.6c2.3,0,4.1-1.8,4.1-4.1l0,0v0C46.9,7.2,45,5.4,42.8,5.4z M42.8,11.3c-1,0-1.8-0.8-1.8-1.8v0
			c0-1,0.8-1.8,1.8-1.8c1,0,1.8,0.8,1.8,1.8S43.7,11.3,42.8,11.3z"/>
		<path class="st1" d="M59.8,9.5c0-2.3-1.8-4.1-4.1-4.1c-0.7,0-1.4,0.3-2,0.7c-0.2-0.2-0.5-0.4-0.8-0.4h-1.4v7.1
			c0,0.5,0.4,0.8,0.8,0.9h1.5V13V9.5h0v0c0-1,0.8-1.8,1.8-1.8c1,0,1.8,0.8,1.8,1.8v0h0v3.2c0,0.5,0.4,0.9,0.9,0.9h1.4V9.5L59.8,9.5
			L59.8,9.5z"/>
		<path class="st1" d="M65.9,10.1c-0.2-0.2-0.3-0.3-0.4-0.5l2.1-2.1c0.4-0.4,0.4-1,0-1.3l-1-1l-3,3.1V3.9c0-0.5-0.4-0.9-0.9-0.9
			h-1.4v10.7h2.3v-2l0.3-0.3c0.1,0.2,0.3,0.3,0.4,0.5c1.1,1.1,2.6,1.8,4.2,1.8c0,0,0,0,0,0c0.1,0,0.2-0.1,0.2-0.2v-2.1
			C67.6,11.3,66.6,10.9,65.9,10.1z"/>
		<g>
			<path class="st1" d="M50.2,12.7V5.7h-1.4c-0.5,0-0.9,0.4-0.9,0.9v7h1.5C49.8,13.5,50.2,13.2,50.2,12.7z"/>
			<path class="st1" d="M47.7,3.4c0-0.8,0.6-1.4,1.4-1.4c0.8,0,1.4,0.6,1.4,1.4s-0.6,1.4-1.4,1.4C48.3,4.8,47.7,4.1,47.7,3.4z"/>
		</g>
		<path class="st1" d="M101.7,5.7c-0.3,0-0.6,0.2-0.8,0.4c-0.6-0.4-1.2-0.7-2-0.7c-2.3,0-4.1,1.8-4.1,4.1v0c0,2.3,1.8,4.1,4.1,4.1
			c0.7,0,1.3-0.2,1.8-0.6c-0.1,0.7-0.4,2.2-2.1,2.7c-2,0.7-2.7-0.5-5.4-0.4c-1.7,0-3,0.8-3.7,1.3c-0.4,0.3-0.6,0.9-0.3,1.3
			c1.3,2.4,3.8,4,6.6,3.9c4.1-0.1,7.3-3.5,7.3-7.6v-1.2V5.7H101.7z M94.6,19.8l-0.8,0.8c-1.4-0.4-2.7-1.4-3.5-2.7
			c-0.1-0.2-0.1-0.5,0.1-0.7c0.6-0.4,1.7-0.8,2.8-0.9l0.1,0c0.5,0,0.9,0,1.3,0.1l0.4,1L94,18.4L94.6,19.8z M100.8,9.5
			c0,1-0.8,1.8-1.8,1.8c-1,0-1.8-0.8-1.8-1.8S98,7.7,99,7.7C100,7.7,100.8,8.5,100.8,9.5L100.8,9.5z"/>
		<path class="st1" d="M93.6,9.5c0-2.3-1.8-4.1-4.1-4.1c-0.7,0-1.4,0.3-2,0.7c-0.2-0.2-0.5-0.4-0.8-0.4h-1.4v7.1
			c0,0.5,0.4,0.8,0.8,0.9h1.5V13V9.5h0v0c0-1,0.8-1.8,1.8-1.8c1,0,1.8,0.8,1.8,1.8v0h0v3.2c0,0.5,0.4,0.9,0.9,0.9h1.4V9.5L93.6,9.5
			L93.6,9.5z"/>
	</g>
</g>
</svg>
