<?xml version="1.0" encoding="utf-8"?>
<!-- Generator: Adobe Illustrator 19.0.0, SVG Export Plug-In . SVG Version: 6.00 Build 0)  -->
<svg version="1.1" id="Layer_1" xmlns="http://www.w3.org/2000/svg" xmlns:xlink="http://www.w3.org/1999/xlink" x="0px" y="0px"
	 viewBox="59 313.7 714.4 215.2" style="enable-background:new 59 313.7 714.4 215.2;" xml:space="preserve">
<metadata><?xpacket begin="﻿" id="W5M0MpCehiHzreSzNTczkc9d"?>
<x:xmpmeta xmlns:x="adobe:ns:meta/" x:xmptk="Adobe XMP Core 5.6-c067 79.157747, 2015/03/30-23:40:42        ">
   <rdf:RDF xmlns:rdf="http://www.w3.org/1999/02/22-rdf-syntax-ns#">
      <rdf:Description rdf:about=""/>
   </rdf:RDF>
</x:xmpmeta>
                                                                                                    
                                                                                                    
                                                                                                    
                                                                                                    
                                                                                                    
                                                                                                    
                                                                                                    
                                                                                                    
                                                                                                    
                                                                                                    
                                                                                                    
                                                                                                    
                                                                                                    
                                                                                                    
                                                                                                    
                                                                                                    
                                                                                                    
                                                                                                    
                                                                                                    
                                                                                                    
                           
<?xpacket end="w"?></metadata>
<style type="text/css">
	.st0{fill:#8C8C8C;}
</style>
<path class="st0" d="M401.2,472l0.3-34.6h-0.2L385.2,472h-18.5l1.3-65.4l20.8-1.5L388,438h0.2l14.4-31.4h12.8l-0.4,31.7h0.2
	l15.2-33.3l19.6,1.5l-30.5,65.4L401.2,472L401.2,472z"/>
<path class="st0" d="M493.4,447.4c-3.8,15.9-18.1,26.1-33.4,26.1s-24.7-10.2-20.9-26.1c3.8-15.9,18.1-26.1,33.5-26.1
	C487.9,421.3,497.2,431.5,493.4,447.4z M458.9,447.4c-1.1,4.8,0.9,7.9,5.4,7.9s8.1-3.2,9.3-7.9c1.1-4.7-1-7.9-5.4-7.9
	C463.6,439.5,460,442.7,458.9,447.4z"/>
<path class="st0" d="M518.6,445.2h0.2l10.8-23.2h13l-0.6,23.3h0.2l10.8-24.1l18.2,1.5l-25,49.2h-17.6l0.6-22.4H529l-10.3,22.4h-17.5
	l-1.4-49.2l19.4-1.5L518.6,445.2z"/>
<path class="st0" d="M605.8,472l0.4-34.6H606L590,472h-18.5l1.3-65.4l20.8-1.5l-0.8,32.9h0.2l14.4-31.4h12.8l-0.4,31.7h0.2l15-33.2
	l19.6,1.5L624.1,472H605.8z"/>
<path class="st0" d="M688.6,466.4c-8,5-15.5,7.1-24.9,7.1c-15.4,0-23.6-11.3-20.3-25.1c4.1-17.1,18.2-27.1,32.3-27.1
	c11.3,0,18.5,6.3,20.2,15.9l-30.2,19.3c1.2,0.6,3.4,0.8,5.1,0.8c5.1,0,9-2.2,12.7-4.8L688.6,466.4z M677.2,438.5
	c-1-2-2.8-2.5-5.2-2.5c-4.6,0-8.8,4.3-9.8,8.5c-0.5,2.1-0.3,2.7-0.1,3.6L677.2,438.5z"/>
<path class="st0" d="M741.6,466.4c-8.1,5-15.6,7.1-24.9,7.1c-15.4,0-23.6-11.3-20.3-25.1c4.1-17.1,18.2-27.1,32.3-27.1
	c11.4,0,18.5,6.3,20.3,15.9l-30.2,19.3c1.2,0.6,3.4,0.8,5.1,0.8c5.2,0,9-2.2,12.7-4.8L741.6,466.4z M730.2,438.5
	c-1.1-2-2.8-2.5-5.2-2.5c-4.5,0-8.7,4.3-9.8,8.5c-0.5,2.1-0.3,2.7-0.1,3.6L730.2,438.5z"/>
<path class="st0" d="M192.3,528.9c-36.7,0-69.7-19-89-47.1c-0.2,0-0.3,0-0.4,0.1l-1.2,0.1c-14.2,1.8-27.5-9.4-31.8-25.6
	c-6.4-2.9-10.9-9.4-10.9-17c0-5.7,2.5-10.8,6.7-14.2c-1.3-18.2,9.1-34.1,24-36.4c13.7-43.2,54.8-75.1,102.6-75.1l0,0
	c47.8,0,88.9,31.9,102.6,75.2c14.9,2.2,25.4,18.2,24,36.4c4.1,3.4,6.6,8.5,6.6,14.2c0,7.5-4.5,14.1-10.9,17
	c-4.3,16.2-17.6,27.4-31.8,25.6l-1.2-0.1c-0.2,0-0.3-0.1-0.5-0.1C262,510,229,528.9,192.3,528.9L192.3,528.9z M191.9,388.5
	c-50.8,0-91.9,21.7-91.9,48.5c0,26.9,41.1,48.6,91.9,48.6c50.7,0,91.9-21.7,91.9-48.6C283.8,410.2,242.6,388.5,191.9,388.5z
	 M150.3,410.2c-15.1,0-27.2,12.2-27.2,27.2c0,15.1,12.2,27.2,27.2,27.2s27.2-12.2,27.2-27.2S165.3,410.2,150.3,410.2z M232.8,410.2
	c-15.1,0-27.2,12.2-27.2,27.2c0,15.1,12.2,27.2,27.2,27.2s27.2-12.2,27.2-27.2S247.8,410.2,232.8,410.2z"/>
<path class="st0" d="M760.1,461.4v1.7h-3.3v8.7h-2.1v-8.7h-3.3v-1.7H760.1z M771.3,471.9l-0.4-6.1c-0.1-0.8-0.1-1.8-0.1-2.9h-0.1
	c-0.3,1-0.6,2.1-0.9,3.1l-1.8,5.7h-2.1l-1.9-5.9c-0.2-0.8-0.5-2-0.7-2.9h-0.1c0,1,0,2-0.1,2.9l-0.4,6.1h-2l0.8-10.4h3.1l1.8,5.1
	c0.2,0.8,0.4,1.6,0.7,2.7l0,0c0.3-0.9,0.5-1.8,0.7-2.6l1.8-5.2h3l0.8,10.4L771.3,471.9L771.3,471.9z"/>
</svg>
