<?xml version="1.0" encoding="iso-8859-1"?>
<!-- Generator: Adobe Illustrator 19.0.0, SVG Export Plug-In . SVG Version: 6.00 Build 0)  -->
<svg version="1.1" id="Layer_1" xmlns="http://www.w3.org/2000/svg" xmlns:xlink="http://www.w3.org/1999/xlink" x="0px" y="0px"
	 viewBox="0 0 714.4 215.2" style="enable-background:new 0 0 714.4 215.2;" xml:space="preserve">
<path style="fill:#FFFFFF;" d="M342.2,158.3l0.3-34.6h-0.2l-16.1,34.6h-18.5l1.3-65.4l20.8-1.5l-0.8,32.9h0.2l14.4-31.4h12.8
	l-0.4,31.7h0.2l15.2-33.3l19.6,1.5l-30.5,65.4H342.2z"/>
<path style="fill:#FFFFFF;" d="M434.4,133.7c-3.8,15.9-18.1,26.1-33.4,26.1c-15.3,0-24.7-10.2-20.9-26.1
	c3.8-15.9,18.1-26.1,33.5-26.1C428.9,107.6,438.2,117.8,434.4,133.7z M399.9,133.7c-1.1,4.8,0.9,7.9,5.4,7.9s8.1-3.2,9.3-7.9
	c1.1-4.7-1-7.9-5.4-7.9C404.6,125.8,401,129,399.9,133.7z"/>
<path style="fill:#FFFFFF;" d="M459.6,131.5h0.2l10.8-23.2h13l-0.6,23.3h0.2l10.8-24.1l18.2,1.5l-25,49.2h-17.6l0.6-22.4h-0.2
	l-10.3,22.4h-17.5l-1.4-49.2l19.4-1.5L459.6,131.5z"/>
<path style="fill:#FFFFFF;" d="M546.8,158.3l0.4-34.6H547l-16,34.6h-18.5l1.3-65.4l20.8-1.5l-0.8,32.9h0.2l14.4-31.4h12.8l-0.4,31.7
	h0.2L576,91.4l19.6,1.5l-30.5,65.4H546.8z"/>
<path style="fill:#FFFFFF;" d="M629.6,152.7c-8,5-15.5,7.1-24.9,7.1c-15.4,0-23.6-11.3-20.3-25.1c4.1-17.1,18.2-27.1,32.3-27.1
	c11.3,0,18.5,6.3,20.2,15.9l-30.2,19.3c1.2,0.6,3.4,0.8,5.1,0.8c5.1,0,9-2.2,12.7-4.8L629.6,152.7z M618.2,124.8
	c-1-2-2.8-2.5-5.2-2.5c-4.6,0-8.8,4.3-9.8,8.5c-0.5,2.1-0.3,2.7-0.1,3.6L618.2,124.8z"/>
<path style="fill:#FFFFFF;" d="M682.6,152.7c-8.1,5-15.6,7.1-24.9,7.1c-15.4,0-23.6-11.3-20.3-25.1c4.1-17.1,18.2-27.1,32.3-27.1
	c11.4,0,18.5,6.3,20.3,15.9l-30.2,19.3c1.2,0.6,3.4,0.8,5.1,0.8c5.2,0,9-2.2,12.7-4.8L682.6,152.7z M671.2,124.8
	c-1.1-2-2.8-2.5-5.2-2.5c-4.5,0-8.7,4.3-9.8,8.5c-0.5,2.1-0.3,2.7-0.1,3.6L671.2,124.8z"/>
<path style="fill:#FFFFFF;" d="M133.3,215.2c-36.7,0-69.7-19-89-47.1c-0.2,0-0.3,0-0.4,0.1l-1.2,0.1c-14.2,1.8-27.5-9.4-31.8-25.6
	c-6.4-2.9-10.9-9.4-10.9-17c0-5.7,2.5-10.8,6.7-14.2c-1.3-18.2,9.1-34.1,24-36.4C44.4,31.9,85.5,0,133.3,0l0,0
	c47.8,0,88.9,31.9,102.6,75.2c14.9,2.2,25.4,18.2,24,36.4c4.1,3.4,6.6,8.5,6.6,14.2c0,7.5-4.5,14.1-10.9,17
	c-4.3,16.2-17.6,27.4-31.8,25.6l-1.2-0.1c-0.2,0-0.3-0.1-0.5-0.1C203,196.3,170,215.2,133.3,215.2L133.3,215.2z M132.9,74.8
	C82.1,74.8,41,96.5,41,123.3c0,26.9,41.1,48.6,91.9,48.6c50.7,0,91.9-21.7,91.9-48.6C224.8,96.5,183.6,74.8,132.9,74.8z M91.3,96.5
	c-15.1,0-27.2,12.2-27.2,27.2c0,15.1,12.2,27.2,27.2,27.2c15,0,27.2-12.2,27.2-27.2C118.5,108.7,106.3,96.5,91.3,96.5z M173.8,96.5
	c-15.1,0-27.2,12.2-27.2,27.2c0,15.1,12.2,27.2,27.2,27.2c15,0,27.2-12.2,27.2-27.2C201,108.7,188.8,96.5,173.8,96.5z"/>
<path style="fill:#FFFFFF;" d="M701.1,147.7v1.7h-3.3v8.7h-2.1v-8.7h-3.3v-1.7H701.1z M712.3,158.2l-0.4-6.1
	c-0.1-0.8-0.1-1.8-0.1-2.9h-0.1c-0.3,1-0.6,2.1-0.9,3.1L709,158h-2.1l-1.9-5.9c-0.2-0.8-0.5-2-0.7-2.9h-0.1c0,1,0,2-0.1,2.9
	l-0.4,6.1h-2l0.8-10.4h3.1l1.8,5.1c0.2,0.8,0.4,1.6,0.7,2.7h0c0.3-0.9,0.5-1.8,0.7-2.6l1.8-5.2h3l0.8,10.4H712.3z"/>
</svg>
