<?xml version="1.0" encoding="utf-8"?>
<!-- Generator: Adobe Illustrator 18.1.1, SVG Export Plug-In . SVG Version: 6.00 Build 0)  -->
<svg version="1.1" id="Layer_1" xmlns="http://www.w3.org/2000/svg" xmlns:xlink="http://www.w3.org/1999/xlink" x="0px" y="0px"
	 viewBox="0 0 222 45" enable-background="new 0 0 222 45" xml:space="preserve">
<g>
	<path fill="#FFFFFF" d="M27.9,45c-7.7,0-14.6-4-18.6-9.9c0,0-0.1,0-0.1,0l-0.3,0c-3,0.4-5.7-2-6.6-5.4c-1.3-0.6-2.3-2-2.3-3.5
		c0-1.2,0.5-2.3,1.4-3c-0.3-3.8,1.9-7.1,5-7.6C9.3,6.7,17.9,0,27.9,0l0,0c10,0,18.6,6.7,21.5,15.7c3.1,0.5,5.3,3.8,5,7.6
		c0.9,0.7,1.4,1.8,1.4,3c0,1.6-0.9,2.9-2.3,3.5c-0.9,3.4-3.7,5.7-6.6,5.4l-0.3,0c0,0-0.1,0-0.1,0C42.4,41,35.5,45,27.9,45L27.9,45z
		 M27.8,15.6c-10.6,0-19.2,4.5-19.2,10.2c0,5.6,8.6,10.2,19.2,10.2c10.6,0,19.2-4.5,19.2-10.2C47,20.2,38.4,15.6,27.8,15.6z
		 M19.1,20.2c-3.1,0-5.7,2.5-5.7,5.7c0,3.1,2.5,5.7,5.7,5.7c3.1,0,5.7-2.5,5.7-5.7C24.8,22.7,22.2,20.2,19.1,20.2z M36.3,20.2
		c-3.1,0-5.7,2.5-5.7,5.7c0,3.1,2.5,5.7,5.7,5.7c3.1,0,5.7-2.5,5.7-5.7C42,22.7,39.5,20.2,36.3,20.2z"/>
	<path fill="#FFFFFF" d="M78.5,35.4l0.1-13.7h-0.1l-6.4,13.7h-7.3l0.5-25.9L73.6,9l-0.3,13h0.1l5.7-12.4h5.1L84,22.1h0.1l6-13.2
		l7.8,0.6L85.8,35.4H78.5z"/>
	<path fill="#FFFFFF" d="M115,25.7C113.5,32,107.8,36,101.8,36c-6.1,0-9.8-4-8.3-10.3c1.5-6.3,7.2-10.3,13.2-10.3
		C112.8,15.4,116.5,19.4,115,25.7z M101.4,25.7c-0.5,1.9,0.4,3.1,2.1,3.1c1.8,0,3.2-1.3,3.7-3.1c0.5-1.9-0.4-3.1-2.2-3.1
		C103.3,22.6,101.8,23.8,101.4,25.7z"/>
	<path fill="#FFFFFF" d="M125,24.8L125,24.8l4.4-9.2h5.1l-0.2,9.2h0.1l4.3-9.5l7.2,0.6L136,35.4h-7l0.3-8.9h-0.1l-4.1,8.9h-6.9
		L117.6,16l7.7-0.6L125,24.8z"/>
	<path fill="#FFFFFF" d="M159.5,35.4l0.2-13.7h-0.1l-6.4,13.7h-7.3l0.5-25.9l8.2-0.6l-0.3,13h0.1l5.7-12.4h5.1L165,22.1h0.1l6-13.2
		l7.8,0.6l-12.1,25.9H159.5z"/>
	<path fill="#FFFFFF" d="M192.3,33.2c-3.2,2-6.2,2.8-9.8,2.8c-6.1,0-9.4-4.5-8.1-9.9c1.6-6.8,7.2-10.7,12.8-10.7
		c4.5,0,7.3,2.5,8,6.3l-11.9,7.6c0.5,0.3,1.4,0.3,2,0.3c2,0,3.6-0.9,5-1.9L192.3,33.2z M187.8,22.2c-0.4-0.8-1.1-1-2.1-1
		c-1.8,0-3.5,1.7-3.9,3.4c-0.2,0.8-0.1,1.1,0,1.4L187.8,22.2z"/>
	<path fill="#FFFFFF" d="M213.3,33.2c-3.2,2-6.2,2.8-9.9,2.8c-6.1,0-9.4-4.5-8-9.9c1.6-6.8,7.2-10.7,12.8-10.7c4.5,0,7.3,2.5,8,6.3
		l-11.9,7.6c0.5,0.3,1.3,0.3,2,0.3c2,0,3.6-0.9,5-1.9L213.3,33.2z M208.8,22.2c-0.4-0.8-1.1-1-2.1-1c-1.8,0-3.5,1.7-3.9,3.4
		c-0.2,0.8-0.1,1.1,0,1.4L208.8,22.2z"/>
	<g>
		<path fill="#FFFFFF" d="M221.3,32.9c0,0.4-0.1,0.7-0.2,1c-0.1,0.3-0.3,0.6-0.5,0.8c-0.2,0.2-0.5,0.4-0.8,0.5
			c-0.3,0.1-0.6,0.2-1,0.2c-0.4,0-0.7-0.1-1-0.2c-0.3-0.1-0.6-0.3-0.8-0.5c-0.2-0.2-0.4-0.5-0.5-0.8c-0.1-0.3-0.2-0.6-0.2-1
			c0-0.4,0.1-0.7,0.2-1c0.1-0.3,0.3-0.6,0.5-0.8c0.2-0.2,0.5-0.4,0.8-0.5c0.3-0.1,0.6-0.2,1-0.2c0.4,0,0.7,0.1,1,0.2
			c0.3,0.1,0.6,0.3,0.8,0.5c0.2,0.2,0.4,0.5,0.5,0.8C221.3,32.2,221.3,32.5,221.3,32.9z M220.6,32.9c0-0.3,0-0.5-0.1-0.8
			c-0.1-0.2-0.2-0.4-0.4-0.6c-0.2-0.2-0.4-0.3-0.6-0.4c-0.2-0.1-0.5-0.1-0.7-0.1c-0.3,0-0.5,0-0.7,0.1c-0.2,0.1-0.4,0.2-0.6,0.4
			c-0.2,0.2-0.3,0.4-0.4,0.6c-0.1,0.2-0.1,0.5-0.1,0.7c0,0.3,0,0.5,0.1,0.8c0.1,0.2,0.2,0.4,0.4,0.6c0.2,0.2,0.4,0.3,0.6,0.4
			c0.2,0.1,0.5,0.1,0.7,0.1c0.3,0,0.5,0,0.8-0.1s0.4-0.2,0.6-0.4c0.2-0.2,0.3-0.4,0.4-0.6C220.6,33.4,220.6,33.2,220.6,32.9z
			 M220,34C220,34,220,34.1,220,34C220,34.1,220,34.1,220,34c-0.1,0.1-0.2,0.1-0.2,0.1c-0.1,0-0.1,0-0.2,0c-0.1,0-0.2,0-0.2,0
			c-0.1,0-0.1,0-0.1,0c0,0-0.1,0-0.1,0c0,0,0,0,0-0.1l-0.1-0.4c0-0.1-0.1-0.2-0.1-0.3c-0.1,0-0.1-0.1-0.2-0.1h-0.1V34
			c0,0.1,0,0.1-0.1,0.1c0,0-0.1,0-0.3,0c-0.2,0-0.3,0-0.3,0c-0.1,0-0.1-0.1-0.1-0.1v-2.1c0-0.1,0-0.2,0.1-0.3
			c0.1-0.1,0.1-0.1,0.3-0.1h0.8c0.1,0,0.3,0,0.4,0c0.1,0,0.2,0.1,0.3,0.1c0.1,0.1,0.2,0.1,0.2,0.2c0.1,0.1,0.1,0.2,0.1,0.4
			c0,0.2-0.1,0.3-0.2,0.4c-0.1,0.1-0.2,0.2-0.4,0.2c0.1,0,0.2,0.1,0.3,0.2c0.1,0.1,0.2,0.2,0.2,0.3l0.1,0.4C220,33.9,220,34,220,34z
			 M219.1,32.4c0,0,0-0.1,0-0.1c0,0,0-0.1-0.1-0.1c0,0-0.1,0-0.1-0.1c0,0-0.1,0-0.2,0h-0.2v0.6h0.2c0.1,0,0.2,0,0.3-0.1
			C219.1,32.5,219.1,32.5,219.1,32.4z"/>
	</g>
</g>
</svg>
